<svg id="Layer_1" viewBox="0 0 448 512">
  <path
    class="cls-1"
    fill="#4A6BD6"
    d="M33,0H481q-1.5,16.67-3,33.32-4.22,47.76-8.41,95.51-4.27,48.25-8.6,96.5-4.22,47.5-8.38,95-4.31,48.5-8.63,97c-1.29,14.4-2.59,28.8-3.9,43.28-1.73.56-3.12,1.06-4.53,1.45q-71.61,20-143.21,40.05c-11.16,3.13-22.23,6.58-33.34,9.89h-4a40.56,40.56,0,0,0-4.5-1.85Q185.63,492,120.73,473.92c-15.51-4.33-31-8.7-46.71-13.11-.34-2.89-.71-5.51-.94-8.14q-4.2-47.76-8.37-95.52Q59.46,298,54.12,238.77c-3.5-39.46-6.88-78.93-10.37-118.4Q38.43,60.17,33,0ZM140.94,381.7a23.09,23.09,0,0,0,2.66,1.14q55.34,15.32,110.69,30.53a12.63,12.63,0,0,0,6.27-.29c21.36-5.8,42.69-11.73,64-17.63L373,382.07c8.58-95.85,17.14-191.5,25.73-287.53H115.27c1.23,17.78,2.43,35.17,3.65,52.87H337.78c-1.43,19.13-2.82,37.82-4.26,57.05l-209,2.5c1.9,18.11,3.73,35.55,5.59,53.31H328.77c-2.9,26.35-5.77,52.27-8.62,78.15-17,4.61-33.51,8.64-49.71,13.64a44.11,44.11,0,0,1-27.2-.05c-16.19-5-32.67-9-49.35-13.55-1.47-15.72-2.91-31.21-4.35-46.61H132.9C135.62,322.18,138.28,352,140.94,381.7Z"
    transform="translate(-33)"
  />
  <path
    class="cls-2"
    fill="#ffffff"
    d="M140.94,381.7c-2.66-29.71-5.32-59.52-8-89.85h56.64c1.44,15.4,2.88,30.89,4.35,46.61C210.57,343,227.05,347,243.24,352a44.11,44.11,0,0,0,27.2.05c16.2-5,32.7-9,49.71-13.64,2.85-25.88,5.72-51.8,8.62-78.15H130.15c-1.86-17.76-3.69-35.2-5.59-53.31l209-2.5c1.44-19.23,2.83-37.92,4.26-57.05H118.92c-1.22-17.7-2.42-35.09-3.65-52.87H398.75c-8.59,96-17.15,191.68-25.73,287.53l-48.44,13.38c-21.33,5.9-42.66,11.83-64,17.63a12.63,12.63,0,0,1-6.27.29q-55.38-15.14-110.69-30.53A23.09,23.09,0,0,1,140.94,381.7Z"
    transform="translate(-33)"
  />
</svg>
