<svg id="Layer_1" viewBox="0 0 447.43 512">
  <path
    class="cls-1"
    fill="#e94c1c"
    d="M45,1H469c7.51,3.49,12.42,8.77,11.76,17.65-1.3,17.27-2.68,34.52-4,51.78q-4.8,60.75-9.62,121.48t-9.37,121.51q-4.87,62.73-9.79,125.47c-.86,11.23-4.15,15.66-14.89,19.06q-68.19,21.6-136.37,43.2C284.74,505,272.89,509,261,513h-9a29.94,29.94,0,0,0-4.25-2.1Q164.38,484.4,81,458c-10.34-3.28-14-7.47-14.79-17.54-1.43-17.59-2.76-35.19-4.12-52.78q-4.68-60.76-9.37-121.52c-3.17-40.5-6.45-81-9.61-121.49s-6-81-9.54-121.49C32.64,12.69,35.21,5.3,45,1ZM257,420.13l120.41-38.21c4.49-57.43,8.94-114.46,13.43-171.93H185.53c-2.19-20.11-4.35-39.87-6.56-60.18H395.53c1.44-18.48,2.85-36.5,4.26-54.66H114.19c4.47,57.16,8.9,113.9,13.36,171H329.28q-2.58,35.47-5,69.47a8.62,8.62,0,0,1-1.14.76c-13.95,3.82-28.14,6.94-41.79,11.64-15.21,5.23-29.67,5.5-45,.11-14-5-28.76-8-43.54-12V292.38H129.63c2.33,30,4.63,59.66,7,89.55Z"
    transform="translate(-33.38 -1)"
  />
  <path
    class="cls-2"
    fill="#fff"
    d="M257,420.13l-120.41-38.2c-2.33-29.89-4.63-59.56-7-89.55h63.15v43.77c14.78,4,29.49,7.06,43.54,12,15.31,5.39,29.77,5.12,45-.11,13.65-4.7,27.84-7.82,41.79-11.64a8.62,8.62,0,0,0,1.14-.76q2.46-34,5-69.47H127.55c-4.46-57.13-8.89-113.87-13.36-171h285.6c-1.41,18.16-2.82,36.18-4.26,54.66H179c2.21,20.31,4.37,40.07,6.56,60.18H390.84c-4.49,57.47-8.94,114.5-13.43,171.93Z"
    transform="translate(-33.38 -1)"
  />
</svg>
