<svg id="JavaScriptLogo" viewBox="0 0 512 512">
  <path
    class="cls-1"
    fill="#e6d353"
    d="M0,512V0H512V512Zm304.18-89.63c7.76,15.06,18.42,27.13,32.95,35.24,29.05,16.2,59.63,17.93,90.91,7.74,15.12-4.93,27.2-14.27,35.18-28.33,6.62-11.65,8.5-24.33,7.89-37.53-.9-19.53-8.52-35.69-23.85-48.07C436.83,343,425,336.94,412.89,331.47c-9.81-4.43-19.77-8.55-29.44-13.28a50.67,50.67,0,0,1-11.7-8.13c-9-8.26-9.07-29.28,8.86-34.66a32.61,32.61,0,0,1,17.53-.09c8.11,2,13.72,7.35,18.28,14,1.17,1.71,2.25,3.49,3.46,5.37l37.27-23.94c-7.54-13.25-17.1-24.3-31-30.8-19.22-9-39.34-9.78-59.63-4.8-29.12,7.15-47.46,30.38-47.9,59.9-.25,16.39,3.66,31.48,14.31,44.35,8,9.62,18,16.63,29.06,22,11.42,5.56,23.23,10.32,34.72,15.76a161.29,161.29,0,0,1,17.13,9.57A19.8,19.8,0,0,1,422,397.41c4.05,12-1.53,23.39-14.11,28.37-10.39,4.11-21.1,4-31.77,1.28-12.69-3.21-21.81-11.35-29.16-21.78-1.24-1.77-2.43-3.57-3.75-5.5Zm-169.66,5.06a11.8,11.8,0,0,0,.43,1.28c7.85,15.86,19.27,28.22,35.59,35.48,18.93,8.43,38.64,9.12,58.58,4.67,16.42-3.66,29.74-12.17,38.6-26.85C275,430,277.9,416.63,277.94,402.74q.22-83,.12-165.94a12.72,12.72,0,0,0-.2-1.6H230.12v3.23q0,79.07,0,158.14a82.77,82.77,0,0,1-.92,12.59c-1,6.7-3.62,12.64-9.88,16.22-9.35,5.35-24.33,3.9-32.5-3.12-4.7-4-7.91-9.19-11-14.42-.76-1.29-1.5-2.6-2.3-4Z"
    transform="translate(0 0)"
  />
  <path
    class="cls-2"
    fill="#323330"
    d="M304.18,422.37l39-22.59c1.32,1.93,2.51,3.73,3.75,5.5,7.35,10.43,16.47,18.57,29.16,21.78,10.67,2.7,21.38,2.83,31.77-1.28,12.58-5,18.16-16.41,14.11-28.37a19.8,19.8,0,0,0-8.12-10.65,161.29,161.29,0,0,0-17.13-9.57c-11.49-5.44-23.3-10.2-34.72-15.76-11.08-5.39-21.1-12.4-29.06-22-10.65-12.87-14.56-28-14.31-44.35.44-29.52,18.78-52.75,47.9-59.9,20.29-5,40.41-4.2,59.63,4.8,13.87,6.5,23.43,17.55,31,30.8L419.88,294.7c-1.21-1.88-2.29-3.66-3.46-5.37-4.56-6.67-10.17-12-18.28-14a32.61,32.61,0,0,0-17.53.09c-17.93,5.38-17.87,26.4-8.86,34.66a50.67,50.67,0,0,0,11.7,8.13c9.67,4.73,19.63,8.85,29.44,13.28,12.14,5.47,23.94,11.52,34.37,19.95,15.33,12.38,22.95,28.54,23.85,48.07.61,13.2-1.27,25.88-7.89,37.53-8,14.06-20.06,23.4-35.18,28.33-31.28,10.19-61.86,8.46-90.91-7.74C322.6,449.5,311.94,437.43,304.18,422.37Z"
    transform="translate(0 0)"
  />
  <path
    class="cls-2"
    fill="#323330"
    d="M134.52,427.43l38.94-23.57c.8,1.38,1.54,2.69,2.3,4,3.11,5.23,6.32,10.4,11,14.42,8.17,7,23.15,8.47,32.5,3.12,6.26-3.58,8.84-9.52,9.88-16.22a82.77,82.77,0,0,0,.92-12.59q.09-79.06,0-158.14V235.2h47.74a12.72,12.72,0,0,1,.2,1.6q0,83-.12,165.94c0,13.89-2.95,27.21-10.22,39.27-8.86,14.68-22.18,23.19-38.6,26.85-19.94,4.45-39.65,3.76-58.58-4.67-16.32-7.26-27.74-19.62-35.59-35.48A11.8,11.8,0,0,1,134.52,427.43Z"
    transform="translate(0 0)"
  />
</svg>
