<svg id="JSXLogo" viewBox="0 0 511.85 512">
  <path
    class="cls-1"
    fill="#e9d74f"
    d="M333.18,512H.47V0L5.18,0H416.72c1.57,0,3.14,0,4.71,0q-5.06,29.43-10.12,58.87-5.56,32.25-11.16,64.48t-11.06,64.5q-5.55,32.25-11.15,64.49-5.87,34.07-11.72,68.13-5.54,32.25-11.06,64.5-5.58,32.41-11.19,64.82Q338.6,480.94,333.18,512ZM221,457.9a47,47,0,0,0,14.63,17.71c15.84,11.48,33.62,13.79,52.19,9.58,24.59-5.57,36.26-24.86,30.5-49.32-2.67-11.36-10.09-19.21-19.9-24.64-8.3-4.6-17.15-8.18-25.67-12.39a68.44,68.44,0,0,1-11-6.41c-4.09-3.07-4.85-7.71-3.84-12.48.93-4.44,4-7.19,8.25-8.51a17.81,17.81,0,0,1,19.09,5.84c1.4,1.71,2.62,3.57,4,5.55l22-14.13c-5.87-10.55-13.93-18-25.58-21A54.59,54.59,0,0,0,260.1,347c-14.55,3.17-25.34,11.24-29.14,26.08-3.93,15.39-.86,29.4,11.34,40.52,8.12,7.39,18.28,11.14,28.08,15.55A139.54,139.54,0,0,1,285,436.65c4.72,2.85,6.71,7.42,5.93,13s-4.39,8.89-9.35,10.43c-10.91,3.38-21.12,2-29.73-6-2.91-2.72-5.27-6-8.06-9.29ZM177.25,347.8v4.31q0,45.12,0,90.24a62.56,62.56,0,0,1-.35,6.71c-.88,8.08-5.52,12.14-13.55,12.46-6.76.26-11.61-2.71-15.28-8.06-1.43-2.08-2.74-4.24-4.18-6.48l-23.59,14.3c3.09,4.22,5.56,8.55,8.92,12,13.49,13.94,30.27,16,48.17,12C192,482,200.9,472.39,204.21,457.85a61.64,61.64,0,0,0,1.52-13.33c.13-31.09.07-62.18.07-93.27V347.8Z"
    transform="translate(-0.47)"
  />
  <path
    class="cls-2"
    fill="#83509c"
    d="M333.18,512q5.4-31.06,10.79-62.14,5.61-32.4,11.19-64.82,5.55-32.24,11.06-64.5,5.85-34.07,11.72-68.13,5.56-32.25,11.15-64.49t11.06-64.5q5.57-32.23,11.16-64.48Q416.4,29.51,421.43.07H512.3V289.76l0,222.24Zm47.29-162.36c.87,1.54,1.39,2.51,2,3.45,11.09,18.33,22.13,36.69,33.36,54.94,1.58,2.57,1.58,4.36,0,6.92-13.64,22.69-27.13,45.46-40.67,68.21-.68,1.16-1.31,2.35-2.19,3.92,9.51,0,18.26-.09,27,.05a4.31,4.31,0,0,0,4.45-2.62c9.44-17.41,21.19-33.58,28-52.56a5.93,5.93,0,0,1,.74,1c7.86,18.2,19.23,34.44,28.85,51.66a4.3,4.3,0,0,0,4.5,2.55c4.37-.18,8.75-.05,13.13-.05H496c-.87-1.57-1.42-2.65-2-3.68Q473.14,449,452.22,414.67c-1.38-2.25-1.35-3.79,0-6,11.09-18.46,22.05-37,33-55.52.59-1,1.09-2.06,1.83-3.49-9.91,0-19.22-.06-28.52.1-1,0-2.29,1.17-2.87,2.15-3.48,5.89-7,11.78-10.11,17.86-3.55,6.87-6.74,13.94-10.09,20.91a4.5,4.5,0,0,1-.5-.62c-6.94-12.68-13.83-25.38-20.86-38a4.67,4.67,0,0,0-3.15-2.28C401,349.57,391,349.64,380.47,349.64Z"
    transform="translate(-0.47)"
  />
  <path
    class="cls-3"
    fill="#30302d"
    d="M221,457.9l22.78-13.19c2.79,3.25,5.15,6.57,8.06,9.29,8.61,8,18.82,9.41,29.73,6,5-1.54,8.57-4.92,9.35-10.43s-1.21-10.1-5.93-13a139.54,139.54,0,0,0-14.61-7.48c-9.8-4.41-20-8.16-28.08-15.55C230.1,402.5,227,388.49,231,373.1c3.8-14.84,14.59-22.91,29.14-26.08a54.59,54.59,0,0,1,25.66.65c11.65,3,19.71,10.48,25.58,21l-22,14.13c-1.43-2-2.65-3.84-4-5.55a17.81,17.81,0,0,0-19.09-5.84c-4.28,1.32-7.32,4.07-8.25,8.51-1,4.77-.25,9.41,3.84,12.48a68.44,68.44,0,0,0,11,6.41c8.52,4.21,17.37,7.79,25.67,12.39,9.81,5.43,17.23,13.28,19.9,24.64,5.76,24.46-5.91,43.75-30.5,49.32-18.57,4.21-36.35,1.9-52.19-9.58A47,47,0,0,1,221,457.9Z"
    transform="translate(-0.47)"
  />
  <path
    class="cls-3"
    fill="#30302d"
    d="M177.25,347.8H205.8v3.45c0,31.09.06,62.18-.07,93.27a61.64,61.64,0,0,1-1.52,13.33C200.9,472.39,192,482,177.38,485.26c-17.9,4-34.68,2-48.17-12-3.36-3.47-5.83-7.8-8.92-12L143.88,447c1.44,2.24,2.75,4.4,4.18,6.48,3.67,5.35,8.52,8.32,15.28,8.06,8-.32,12.67-4.38,13.55-12.46a62.56,62.56,0,0,0,.35-6.71q0-45.12,0-90.24Z"
    transform="translate(-0.47)"
  />
  <path
    class="cls-4"
    fill="#f3f3f3"
    d="M380.47,349.64c10.54,0,20.52-.07,30.5.11a4.67,4.67,0,0,1,3.15,2.28c7,12.63,13.92,25.33,20.86,38a4.5,4.5,0,0,0,.5.62c3.35-7,6.54-14,10.09-20.91,3.14-6.08,6.63-12,10.11-17.86.58-1,1.88-2.13,2.87-2.15,9.3-.16,18.61-.1,28.52-.1-.74,1.43-1.24,2.49-1.83,3.49-11,18.52-21.94,37.06-33,55.52-1.34,2.23-1.37,3.77,0,6Q473.22,449,494,483.4c.62,1,1.17,2.11,2,3.68H479.62c-4.38,0-8.76-.13-13.13.05a4.3,4.3,0,0,1-4.5-2.55c-9.62-17.22-21-33.46-28.85-51.66a5.93,5.93,0,0,0-.74-1c-6.78,19-18.53,35.15-28,52.56a4.31,4.31,0,0,1-4.45,2.62c-8.75-.14-17.5-.05-27-.05.88-1.57,1.51-2.76,2.19-3.92,13.54-22.75,27-45.52,40.67-68.21,1.54-2.56,1.54-4.35,0-6.92-11.23-18.25-22.27-36.61-33.36-54.94C381.86,352.15,381.34,351.18,380.47,349.64Z"
    transform="translate(-0.47)"
  />
</svg>
